<?xml version="1.0" standalone="no"?>
<!DOCTYPE svg PUBLIC "-//W3C//DTD SVG 20010904//EN"
 "http://www.w3.org/TR/2001/REC-SVG-20010904/DTD/svg10.dtd">
<svg version="1.0" xmlns="http://www.w3.org/2000/svg"
 width="1080.000000pt" height="1080.000000pt" viewBox="0 0 1080.000000 1080.000000"
 preserveAspectRatio="xMidYMid meet">

<g transform="translate(0.000000,1080.000000) scale(0.100000,-0.100000)"
fill="#000000" stroke="none">
<path d="M2425 4280 c-254 -39 -411 -216 -392 -443 14 -169 133 -296 377 -402
236 -104 282 -130 306 -176 32 -64 9 -147 -53 -189 -33 -23 -46 -25 -142 -25
-97 0 -111 2 -163 29 -52 26 -158 120 -180 160 -9 17 -31 11 -60 -16 -7 -7
-46 -38 -85 -67 -40 -30 -73 -59 -73 -64 0 -26 148 -197 172 -197 3 0 13 -6
20 -14 25 -24 114 -65 189 -86 91 -25 256 -27 344 -5 210 54 335 190 351 382
18 213 -86 347 -360 469 -198 87 -290 138 -313 173 -33 50 -31 102 7 145 41
46 85 59 179 54 61 -4 85 -10 119 -32 39 -24 85 -69 118 -115 10 -13 23 -7 90
44 127 95 130 99 114 132 -28 54 -142 157 -210 190 -108 51 -238 70 -355 53z"/>
<path d="M3290 3777 c0 -446 2 -490 19 -560 37 -143 100 -244 200 -321 118
-91 194 -116 371 -123 116 -4 146 -2 213 16 217 57 359 200 423 426 15 51 18
123 21 471 l5 412 -39 12 c-21 7 -87 32 -146 56 -59 24 -112 44 -117 44 -5 0
-10 -193 -12 -467 l-3 -468 -26 -56 c-31 -67 -72 -108 -137 -141 -66 -32 -224
-33 -293 -2 -66 31 -113 76 -145 142 l-29 57 -3 443 -3 442 -49 -41 c-27 -23
-53 -39 -57 -36 -5 3 -35 44 -67 91 -53 80 -60 86 -92 86 l-34 0 0 -483z"/>
<path d="M6435 4227 c-39 -19 -108 -49 -155 -67 -47 -18 -89 -37 -95 -41 -7
-5 -9 -236 -7 -668 l2 -661 504 0 505 0 6 53 c3 28 5 90 3 137 l-3 85 -357 3
-358 2 0 180 0 180 253 2 252 3 3 128 3 127 -256 0 -255 0 0 145 c0 131 2 145
18 146 9 0 163 1 342 2 l325 2 3 138 3 137 -333 0 -334 0 -69 -33z"/>
<path d="M7452 3528 l3 -733 150 0 150 0 3 258 2 257 105 0 104 0 59 -77 c32
-43 89 -121 127 -173 37 -52 71 -97 74 -100 3 -3 22 -27 41 -55 86 -124 66
-115 250 -115 122 0 160 3 160 13 0 7 -46 75 -102 152 -91 125 -162 224 -265
366 l-33 47 43 26 c56 32 142 125 166 180 107 234 25 502 -188 614 -118 63
-134 65 -509 70 l-342 4 2 -734z m657 443 c51 -27 99 -83 107 -127 12 -66 -1
-149 -31 -187 -48 -64 -93 -77 -270 -77 l-155 0 0 205 0 205 155 0 c134 0 161
-3 194 -19z"/>
<path d="M5760 4015 c-36 -8 -101 -16 -145 -20 -112 -9 -114 -11 -66 -46 97
-69 108 -217 24 -310 -22 -25 -50 -43 -77 -50 -45 -12 -296 -22 -320 -13 -14
5 -16 34 -16 204 l0 199 -42 5 c-24 3 -90 12 -148 19 -58 8 -107 13 -110 12
-3 -2 -4 -278 -2 -614 l2 -611 150 0 150 0 2 258 3 257 190 6 c161 5 200 9
255 28 211 73 330 233 330 445 0 70 -21 169 -46 218 -17 32 -31 33 -134 13z"/>
</g>
</svg>
